<svg xmlns="http://www.w3.org/2000/svg" width="46" height="46" viewBox="0 0 46 46" fill="none">
<path d="M16.6663 25.1579L23.333 31.8245M23.333 31.8245L29.9997 25.1579M23.333 31.8245L23.333 15.1579M23.333 3.49121C25.9594 3.49121 28.5602 4.00852 30.9867 5.01362C33.4132 6.01871 35.618 7.4919 37.4751 9.34907C39.3323 11.2062 40.8055 13.411 41.8106 15.8375C42.8157 18.2641 43.333 20.8648 43.333 23.4912C43.333 26.1176 42.8157 28.7184 41.8106 31.1449C40.8055 33.5714 39.3323 35.7762 37.4751 37.6333C35.618 39.4905 33.4132 40.9637 30.9867 41.9688C28.5602 42.9739 25.9594 43.4912 23.333 43.4912C18.0287 43.4912 12.9416 41.3841 9.19087 37.6333C5.44014 33.8826 3.33301 28.7955 3.33301 23.4912C3.33301 18.1869 5.44014 13.0998 9.19087 9.34908C12.9416 5.59835 18.0287 3.49121 23.333 3.49121Z" stroke="white" stroke-linecap="round" stroke-linejoin="round"/>
</svg>