<svg xmlns="http://www.w3.org/2000/svg" width="26" height="26" viewBox="0 0 26 26" fill="none">
<path d="M14.1107 16.8631L17.8144 13.1594M17.8144 13.1594L14.1107 9.45569M17.8144 13.1594L8.55516 13.1594M2.07368 13.1594C2.07368 11.7003 2.36107 10.2554 2.91946 8.90736C3.47785 7.55929 4.29629 6.33442 5.32805 5.30265C6.35981 4.27089 7.58469 3.45245 8.93275 2.89407C10.2808 2.33568 11.7257 2.04828 13.1848 2.04828C14.6439 2.04829 16.0888 2.33568 17.4368 2.89407C18.7849 3.45245 20.0098 4.27089 21.0415 5.30266C22.0733 6.33442 22.8917 7.5593 23.4501 8.90736C24.0085 10.2554 24.2959 11.7003 24.2959 13.1594C24.2959 16.1062 23.1253 18.9324 21.0415 21.0161C18.9578 23.0999 16.1316 24.2705 13.1848 24.2705C10.2379 24.2705 7.41178 23.0999 5.32805 21.0161C3.24431 18.9324 2.07368 16.1062 2.07368 13.1594Z" stroke="white" stroke-linecap="round" stroke-linejoin="round"/>
</svg>