<svg xmlns="http://www.w3.org/2000/svg" width="10" height="11" viewBox="0 0 10 11" fill="none">
<path fill-rule="evenodd" clip-rule="evenodd" d="M7.35959 1.73862C7.45334 1.74487 7.54709 1.75195 7.64001 1.75945C8.28167 1.81362 8.75001 2.35779 8.75001 2.98487V7.00237C8.75001 7.33389 8.61831 7.65183 8.38389 7.88625C8.14947 8.12067 7.83153 8.25237 7.50001 8.25237V7.31445C7.50001 4.84695 5.59334 2.82487 3.17334 2.6407C3.30834 2.16904 3.71501 1.8032 4.23501 1.75987C4.32834 1.75195 4.42167 1.74487 4.51542 1.73862C4.62089 1.53541 4.78015 1.36506 4.97582 1.24618C5.17149 1.12729 5.39605 1.06443 5.62501 1.06445H6.25001C6.47896 1.06443 6.70352 1.12729 6.89919 1.24618C7.09486 1.36506 7.25412 1.53541 7.35959 1.73862ZM5.00001 2.31445C5.00001 2.14869 5.06585 1.98972 5.18306 1.87251C5.30027 1.7553 5.45925 1.68945 5.62501 1.68945H6.25001C6.41577 1.68945 6.57474 1.7553 6.69195 1.87251C6.80916 1.98972 6.87501 2.14869 6.87501 2.31445H5.00001Z" fill="white"/>
<path d="M1.25 4.0332C1.25 3.60154 1.6 3.25195 2.03125 3.25195H2.1875C2.6019 3.25195 2.99933 3.41657 3.29235 3.7096C3.58538 4.00262 3.75 4.40005 3.75 4.81445V5.5957C3.75 6.02737 4.1 6.37695 4.53125 6.37695H5.3125C5.51769 6.37695 5.72087 6.41737 5.91044 6.49589C6.10001 6.57441 6.27226 6.68951 6.41735 6.8346C6.56245 6.97969 6.67754 7.15194 6.75606 7.34151C6.83458 7.53108 6.875 7.73426 6.875 7.93945V9.0332C6.875 9.46445 6.525 9.81445 6.09375 9.81445H2.03125C1.82405 9.81445 1.62534 9.73214 1.47882 9.58563C1.33231 9.43912 1.25 9.2404 1.25 9.0332V4.0332Z" fill="white"/>
<path d="M4.3752 4.81462C4.37593 4.28902 4.18667 3.78086 3.84229 3.38379C4.53949 3.56711 5.17549 3.93232 5.68525 4.44208C6.195 4.95183 6.56022 5.58783 6.74354 6.28504C6.34647 5.94066 5.83831 5.75139 5.3127 5.75212H4.53145C4.49001 5.75212 4.45027 5.73566 4.42097 5.70636C4.39166 5.67706 4.3752 5.63731 4.3752 5.59587V4.81462Z" fill="white"/>
</svg>