<svg xmlns="http://www.w3.org/2000/svg" width="20" height="20" viewBox="0 0 20 20" fill="none">
<path fill-rule="evenodd" clip-rule="evenodd" d="M13.125 1.875H17.5C17.6658 1.875 17.8247 1.94085 17.9419 2.05806C18.0592 2.17527 18.125 2.33424 18.125 2.5V6.875C18.125 7.04076 18.0592 7.19973 17.9419 7.31694C17.8247 7.43415 17.6658 7.5 17.5 7.5C17.3342 7.5 17.1753 7.43415 17.0581 7.31694C16.9408 7.19973 16.875 7.04076 16.875 6.875V4.00833L6.69167 14.1917C6.57319 14.3021 6.41648 14.3622 6.25456 14.3593C6.09265 14.3565 5.93816 14.2909 5.82365 14.1764C5.70914 14.0618 5.64354 13.9074 5.64069 13.7454C5.63783 13.5835 5.69793 13.4268 5.80833 13.3083L15.9917 3.125H13.125C12.9592 3.125 12.8003 3.05915 12.6831 2.94194C12.5658 2.82473 12.5 2.66576 12.5 2.5C12.5 2.33424 12.5658 2.17527 12.6831 2.05806C12.8003 1.94085 12.9592 1.875 13.125 1.875ZM4.375 5.625C4.04348 5.625 3.72554 5.7567 3.49112 5.99112C3.2567 6.22554 3.125 6.54348 3.125 6.875V15.625C3.125 15.9565 3.2567 16.2745 3.49112 16.5089C3.72554 16.7433 4.04348 16.875 4.375 16.875H13.125C13.4565 16.875 13.7745 16.7433 14.0089 16.5089C14.2433 16.2745 14.375 15.9565 14.375 15.625V8.75C14.375 8.58424 14.4408 8.42527 14.5581 8.30806C14.6753 8.19085 14.8342 8.125 15 8.125C15.1658 8.125 15.3247 8.19085 15.4419 8.30806C15.5592 8.42527 15.625 8.58424 15.625 8.75V15.625C15.625 16.288 15.3616 16.9239 14.8928 17.3928C14.4239 17.8616 13.788 18.125 13.125 18.125H4.375C3.71196 18.125 3.07607 17.8616 2.60723 17.3928C2.13839 16.9239 1.875 16.288 1.875 15.625V6.875C1.875 6.21196 2.13839 5.57607 2.60723 5.10723C3.07607 4.63839 3.71196 4.375 4.375 4.375H11.25C11.4158 4.375 11.5747 4.44085 11.6919 4.55806C11.8092 4.67527 11.875 4.83424 11.875 5C11.875 5.16576 11.8092 5.32473 11.6919 5.44194C11.5747 5.55915 11.4158 5.625 11.25 5.625H4.375Z" fill="white"/>
</svg>