<svg xmlns="http://www.w3.org/2000/svg" width="30" height="25" viewBox="0 0 30 25" fill="none">
<path fill-rule="evenodd" clip-rule="evenodd" d="M11.4769 0.326617L0.819859 10.9464C0.399924 11.3663 0.166626 11.9355 0.166626 12.5327V15.4723C0.166626 16.0696 0.399924 16.6388 0.819859 17.0587L2.43428 18.6638C2.95686 19.1864 3.83406 19.0651 4.19801 18.4212L13.7165 1.67041C14.1365 0.923862 13.6046 0 12.746 0H12.2701C11.9715 0 11.6915 0.121315 11.4769 0.326617ZM28.504 10.9464L17.8469 0.326617C17.6416 0.121315 17.3524 0 17.063 0H16.5871C15.7286 0 15.1873 0.923862 15.6166 1.67041L25.1351 18.4212C25.4991 19.0651 26.3762 19.1771 26.8989 18.6638L28.5133 17.0587C28.9332 16.6388 29.1665 16.0696 29.1665 15.4723V12.5327C29.1665 11.9355 28.9332 11.3663 28.5133 10.9464H28.504ZM9.41528 24.7013C8.82737 24.7013 8.25817 24.468 7.8382 24.0481L5.39325 21.6124C4.69336 20.9032 5.18795 19.6994 6.18647 19.6994H23.1332C24.1317 19.6994 24.6356 20.9125 23.9264 21.6124L21.4815 24.0481C21.0615 24.468 20.4923 24.7013 19.9044 24.7013H9.41528Z" fill="white"/>
</svg>